HIERARCHY
ROOT Hips
{
	OFFSET 0.00000 0.00000 0.00000
	CHANNELS 6 Xposition Yposition Zposition Zrotation Yrotation Xrotation 
	JOINT LHipJoint
	{
		OFFSET 0 0 0
		CHANNELS 3 Zrotation Yrotation Xrotation
		JOINT LeftUpLeg
		{
			OFFSET 1.44361 -1.63093 0.70831
			CHANNELS 3 Zrotation Yrotation Xrotation
			JOINT LeftLeg
			{
				OFFSET 2.20103 -6.04728 0.00000
				CHANNELS 3 Zrotation Yrotation Xrotation
				JOINT LeftFoot
				{
					OFFSET 2.54154 -6.98283 0.00000
					CHANNELS 3 Zrotation Yrotation Xrotation
					JOINT LeftToeBase
					{
						OFFSET 0.05971 -0.16406 1.77582
						CHANNELS 3 Zrotation Yrotation Xrotation
						End Site
						{
							OFFSET 0.00000 -0.00000 0.90832
						}
					}
				}
			}
		}
	}
	JOINT RHipJoint
	{
		OFFSET 0 0 0
		CHANNELS 3 Zrotation Yrotation Xrotation
		JOINT RightUpLeg
		{
			OFFSET -1.65838 -1.63093 0.70830
			CHANNELS 3 Zrotation Yrotation Xrotation
			JOINT RightLeg
			{
				OFFSET -2.26926 -6.23475 0.00000
				CHANNELS 3 Zrotation Yrotation Xrotation
				JOINT RightFoot
				{
					OFFSET -2.34808 -6.45129 0.00000
					CHANNELS 3 Zrotation Yrotation Xrotation
					JOINT RightToeBase
					{
						OFFSET -0.18633 -0.51195 1.68539
						CHANNELS 3 Zrotation Yrotation Xrotation
						End Site
						{
							OFFSET -0.00000 -0.00000 0.88927
						}
					}
				}
			}
		}
	}
	JOINT LowerBack
	{
		OFFSET 0 0 0
		CHANNELS 3 Zrotation Yrotation Xrotation
		JOINT Spine
		{
			OFFSET -0.10393 2.01691 0.06920
			CHANNELS 3 Zrotation Yrotation Xrotation
			JOINT Spine1
			{
				OFFSET 0.04092 2.01302 -0.05283
				CHANNELS 3 Zrotation Yrotation Xrotation
				JOINT Neck
				{
					OFFSET 0 0 0
					CHANNELS 3 Zrotation Yrotation Xrotation
					JOINT Neck1
					{
						OFFSET -0.02870 1.58978 -0.03113
						CHANNELS 3 Zrotation Yrotation Xrotation
						JOINT Head
						{
							OFFSET 0.11532 1.54326 -0.29195
							CHANNELS 3 Zrotation Yrotation Xrotation
							End Site
							{
								OFFSET 0.04056 1.59999 -0.09535
							}
						}
					}
				}
				JOINT LeftShoulder
				{
					OFFSET 0 0 0
					CHANNELS 3 Zrotation Yrotation Xrotation
					JOINT LeftArm
					{
						OFFSET 3.30641 1.15764 0.01104
						CHANNELS 3 Zrotation Yrotation Xrotation
						JOINT LeftForeArm
						{
							OFFSET 4.63208 -0.00000 0.00000
							CHANNELS 3 Zrotation Yrotation Xrotation
							JOINT LeftHand
							{
								OFFSET 3.41924 -0.00000 -0.00000
								CHANNELS 3 Zrotation Yrotation Xrotation
								JOINT LeftFingerBase
								{
									OFFSET 0 0 0
									CHANNELS 3 Zrotation Yrotation Xrotation
									JOINT LeftHandIndex1
									{
										OFFSET 0.62537 -0.00000 -0.00000
										CHANNELS 3 Zrotation Yrotation Xrotation
										End Site
										{
											OFFSET 0.50419 -0.00000 -0.00000
										}
									}
								}
								JOINT LThumb
								{
									OFFSET 0 0 0
									CHANNELS 3 Zrotation Yrotation Xrotation
									End Site
									{
										OFFSET 0.51189 -0.00000 0.51189
									}
								}
							}
						}
					}
				}
				JOINT RightShoulder
				{
					OFFSET 0 0 0
					CHANNELS 3 Zrotation Yrotation Xrotation
					JOINT RightArm
					{
						OFFSET -3.78081 1.02180 -0.16609
						CHANNELS 3 Zrotation Yrotation Xrotation
						JOINT RightForeArm
						{
							OFFSET -4.40640 -0.00000 -0.00000
							CHANNELS 3 Zrotation Yrotation Xrotation
							JOINT RightHand
							{
								OFFSET -3.44675 -0.00000 0.00000
								CHANNELS 3 Zrotation Yrotation Xrotation
								JOINT RightFingerBase
								{
									OFFSET 0 0 0
									CHANNELS 3 Zrotation Yrotation Xrotation
									JOINT RightHandIndex1
									{
										OFFSET -0.51367 -0.00000 -0.00000
										CHANNELS 3 Zrotation Yrotation Xrotation
										End Site
										{
											OFFSET -0.41414 -0.00000 -0.00000
										}
									}
								}
								JOINT RThumb
								{
									OFFSET 0 0 0
									CHANNELS 3 Zrotation Yrotation Xrotation
									End Site
									{
										OFFSET -0.42046 -0.00000 0.42046
									}
								}
							}
						}
					}
				}
			}
		}
	}
}
MOTION
Frames: 7
Frame Time: .0083333
9.1983 16.6419 24.7283 0 0 0 0 0 0 -21 0 0 0 0 0 0 0 0 0 0 0 0 0 0 21 0 0 0 0 0 0 0 0 0 0 0 0 0 0 0 0 0 0 0 0 0 0 -16 0 0 21 0 0 11 0 0 0 -8 0 0 0 0 0 0 0 0 0 0 0 0 0 0 0 0 0 0 0 0 8 0 0 0 0 0 0 0 0 0 0 0 0 0 0 0 0 0
9.1983 16.6419 24.7283 179.3560 0.3615 -168.1390 0.0000 0.0000 0.0000 -20.9592 -10.6878 -5.9775 0.2186 3.0095 8.3053 0.6881 0.0047 -15.6805 9.1025 -16.8732 -56.4440 0.0000 0.0000 0.0000 19.0124 4.6030 -7.7672 -0.1786 -2.7224 7.5069 -0.3640 1.6412 -10.9433 -0.6728 5.2450 -14.6087 -6.8338 1.4828 -9.1797 1.1710 2.6835 0.1120 5.4329 1.1587 4.9074 -4.5473 -0.3321 -6.8947 7.4229 -4.4924 28.4576 2.7815 -2.7019 10.4475 0.0000 0.0000 0.0000 -90.3475 -1.0535 22.5709 9.1956 -15.4715 -1.2518 -0.0000 -0.0000 29.3732 26.3855 -16.2038 -7.8817 -7.1250 0.0000 -0.0000 -0.9099 12.0088 0.7008 0.0000 0.0000 0.0000 94.5495 -5.6438 -8.1307 -13.5972 22.1559 -2.6743 0.0000 0.0000 17.9708 -25.5397 -37.1868 16.1090 7.1250 -0.0000 -0.0000 12.7990 -69.6516 -7.5930
9.1913 16.6411 24.7239 179.2890 0.3321 -168.1240 0.0000 0.0000 0.0000 -21.0695 -10.7836 -6.0517 0.2265 3.0634 8.4554 0.6986 -0.0637 -15.7751 9.1104 -16.8783 -56.4713 0.0000 0.0000 0.0000 18.8900 4.7529 -7.7033 -0.1749 -2.6942 7.4285 -0.3777 1.7335 -11.1360 -0.6326 5.0892 -14.1631 -6.8314 1.4260 -9.2926 1.1559 2.6174 0.1269 5.4134 1.1222 4.9970 -4.5928 -0.3231 -6.7847 7.4218 -4.4747 28.4064 2.7911 -2.7032 10.4059 0.0000 -0.0000 0.0000 -90.4139 -1.0051 23.5657 9.5498 -16.0323 -1.3479 -0.0000 -0.0000 28.4469 26.2557 -17.4911 -8.4330 -7.1250 0.0000 -0.0000 -1.1179 10.6222 0.8929 0.0000 -0.0000 0.0000 94.5371 -5.4485 -8.1205 -13.5806 22.1320 -2.6681 0.0000 0.0000 18.2552 -24.5134 -37.0829 15.3741 7.1250 -0.0000 -0.0000 14.0351 -69.2253 -8.2023
9.1855 16.6411 24.7205 179.2440 0.2816 -168.0900 0.0000 0.0000 0.0000 -21.1415 -10.8859 -6.1759 0.2377 3.1377 8.6624 0.7086 -0.1712 -15.8521 9.2419 -16.9609 -56.9230 0.0000 0.0000 0.0000 18.8176 4.8041 -7.7103 -0.1755 -2.6983 7.4398 -0.3979 1.8634 -11.4140 -0.7247 5.4395 -15.1664 -6.8339 1.3740 -9.3891 1.1505 2.5565 0.1283 5.4062 1.0895 5.0617 -4.5737 -0.3086 -6.7618 7.3742 -4.4456 28.4035 2.7738 -2.6941 10.3967 0.0000 -0.0000 0.0000 -90.4818 -1.0642 24.4206 9.8206 -16.4585 -1.4237 -0.0000 -0.0000 27.6522 26.1672 -18.1196 -8.6882 -7.1250 0.0000 -0.0000 -1.2381 9.9518 1.0058 0.0000 -0.0000 0.0000 94.5297 -5.2835 -8.0100 -13.5856 22.1392 -2.6700 0.0000 0.0000 18.4013 -23.9656 -37.0170 14.9823 7.1250 -0.0000 -0.0000 14.6704 -68.9898 -8.5018
9.1807 16.6401 24.7155 179.3100 0.2766 -168.0720 0.0000 0.0000 0.0000 -21.0640 -10.8445 -6.3086 0.2485 3.2078 8.8578 0.7211 -0.5480 -15.8690 9.0255 -16.8241 -56.1784 0.0000 0.0000 0.0000 18.8963 4.8416 -7.7177 -0.1778 -2.7164 7.4902 -0.4280 2.1235 -11.8070 -0.8843 5.9944 -16.7682 -6.7417 1.3840 -9.5031 1.1662 2.5677 0.1455 5.3777 1.0932 5.1456 -4.5420 -0.3241 -6.7567 7.3472 -4.4570 28.3717 2.7571 -2.6969 10.3837 0.0000 -0.0000 0.0000 -90.5350 -1.1928 25.3387 10.0547 -16.8250 -1.4907 -0.0000 -0.0000 27.0072 26.0808 -17.6356 -8.4352 -7.1250 0.0000 -0.0000 -1.2467 10.4923 0.9991 0.0000 -0.0000 0.0000 94.5441 -5.1297 -7.9060 -13.5690 22.1152 -2.6637 0.0000 0.0000 18.4852 -23.7377 -36.9270 14.7996 7.1250 -0.0000 -0.0000 14.8601 -68.8324 -8.5610
9.1768 16.6376 24.7112 179.4240 0.3219 -168.0720 0.0000 0.0000 0.0000 -20.8940 -10.4344 -6.2519 0.2301 3.0874 8.5222 0.7043 -1.2646 -15.4748 8.3465 -16.3683 -53.8013 0.0000 0.0000 0.0000 19.0322 4.9211 -7.7049 -0.1798 -2.7310 7.5306 -0.4911 2.4182 -12.6275 -0.9398 6.1747 -17.2921 -6.5981 1.4258 -9.5813 1.1819 2.6127 0.1458 5.3224 1.1173 5.1888 -4.3507 -0.2345 -7.0992 7.2564 -4.3346 28.5800 2.7044 -2.6196 10.5153 -0.0000 0.0000 0.0000 -90.5975 -1.3373 25.9648 10.2139 -17.0735 -1.5372 -0.0000 -0.0000 26.7868 26.1372 -17.1786 -8.2464 -7.1250 0.0000 -0.0000 -1.1656 10.9815 0.9224 -0.0000 0.0000 0.0000 94.5752 -5.0305 -7.9107 -13.5328 22.0629 -2.6501 0.0000 0.0000 18.6545 -23.2518 -35.9273 14.1501 7.1250 -0.0000 -0.0000 14.3793 -67.7269 -7.9211
9.1732 16.6356 24.7090 179.4650 0.3436 -168.0850 0.0000 0.0000 0.0000 -20.8179 -9.8694 -5.8897 0.1818 2.7466 7.5742 0.6540 -1.7830 -14.7714 7.8072 -15.9756 -51.8653 0.0000 0.0000 0.0000 19.0692 4.9821 -7.6679 -0.1805 -2.7365 7.5460 -0.5972 3.1398 -13.8660 -0.8408 5.8491 -16.3471 -6.5504 1.4306 -9.6112 1.2032 2.6148 0.1476 5.3197 1.1186 5.2082 -3.7694 0.0918 -8.2149 6.8834 -3.8668 29.2811 2.5226 -2.3509 10.9545 0.0000 -0.0000 0.0000 -90.7077 -1.5674 26.2613 10.2642 -17.1518 -1.5520 -0.0000 -0.0000 26.8249 26.3531 -17.3467 -8.4019 -7.1250 0.0000 -0.0000 -1.0398 10.7644 0.8274 0.0000 -0.0000 0.0000 94.5652 -4.9398 -7.8870 -13.5015 22.0177 -2.6383 0.0000 0.0000 18.8028 -23.0705 -34.3761 13.5222 7.1250 -0.0000 -0.0000 13.0829 -66.1726 -6.7326
